Coordinates
version=1
nRows=16
nColumns=22
inDegrees=yes

Units are S.I. units (second, meters, Newtons, ...)
If the header above contains a line with 'inDegrees', this indicates whether rotational values are in degrees (yes) or radians (no).

endheader
time	pelvis_tilt	pelvis_list	pelvis_rotation	pelvis_tx	pelvis_ty	pelvis_tz	hip_flexion_r	hip_adduction_r	hip_rotation_r	knee_angle_r	ankle_angle_r	subtalar_angle_r	hip_flexion_l	hip_adduction_l	hip_rotation_l	knee_angle_l	ankle_angle_l	subtalar_angle_l	lumbar_extension	lumbar_bending	lumbar_rotation
      3.08000000	     -1.25705877	     -5.11722894	     10.93499194	     -0.28289684	      0.94946636	     -0.32191019	     30.20203561	     -0.57170337	     -9.68163928	    -18.47099278	      3.27848689	      5.76460294	     -9.41472017	     -3.97075624	     15.36360442	    -11.23981624	     18.96912409	     -0.71295246	     -3.32466844	      4.42551976	    -10.86164628
      3.09000000	     -1.25964668	     -5.13540414	     11.20097721	     -0.27419859	      0.94843948	     -0.32170409	     30.22462165	     -0.45581082	     -9.23421929	    -18.01743783	      3.71939655	      5.85469643	     -9.86600096	     -4.16808225	     15.63457263	    -11.34800841	     19.01290867	     -0.40229538	     -3.29924058	      4.44166789	    -10.84314183
      3.10000000	     -1.23917912	     -5.15287455	     11.48253198	     -0.26528970	      0.94745768	     -0.32148608	     30.24017425	     -0.35330405	     -8.91653889	    -17.81997289	      4.04639506	      5.91710508	    -10.32296757	     -4.37703031	     15.89901583	    -11.50200047	     19.03346167	     -0.00976803	     -3.28179484	      4.46447706	    -10.86006349
      3.11000000	     -1.21790565	     -5.17668921	     11.76288763	     -0.25618294	      0.94650012	     -0.32121460	     30.26487768	     -0.24740160	     -8.72100103	    -17.85102278	      4.22653760	      5.91558941	    -10.75377823	     -4.59725861	     16.15377769	    -11.71840355	     19.04221601	      0.47672028	     -3.25062317	      4.49157119	    -10.86484520
      3.12000000	     -1.20621639	     -5.18890968	     12.06420641	     -0.24684782	      0.94555809	     -0.32093668	     30.32653373	     -0.17081856	     -8.66462539	    -18.14803497	      4.28426482	      5.83978819	    -11.19250583	     -4.81762790	     16.47628676	    -11.91685291	     18.97857297	      0.85616824	     -3.18859963	      4.50397391	    -10.92704041
      3.13000000	     -1.16587944	     -5.23727728	     12.35158759	     -0.23728431	      0.94468364	     -0.32058180	     30.35225312	     -0.03704438	     -8.67861393	    -18.60746815	      4.13402602	      5.60449052	    -11.62116420	     -5.08339907	     16.73289563	    -12.19459390	     18.97790736	      1.55693281	     -3.13519276	      4.56348337	    -10.94278468
      3.14000000	     -1.14499238	     -5.28987298	     12.66102074	     -0.22750820	      0.94383809	     -0.32018424	     30.40039563	      0.08847836	     -8.76997379	    -19.23979253	      3.82701268	      5.29796846	    -12.02272339	     -5.36269839	     17.04724100	    -12.48761095	     18.88764909	      2.17916886	     -3.03983184	      4.61640206	    -11.00729719
      3.15000000	     -1.13267534	     -5.36862858	     12.95146372	     -0.21751823	      0.94306288	     -0.31970476	     30.44618439	      0.25840480	     -8.83830292	    -19.97533420	      3.29051396	      4.86787520	    -12.39432518	     -5.66831260	     17.34404472	    -12.82180781	     18.72401396	      2.91377231	     -2.91359441	      4.69410364	    -11.04532789
      3.16000000	     -1.11449602	     -5.46975664	     13.25091264	     -0.20735104	      0.94237328	     -0.31919684	     30.48831985	      0.44612402	     -8.92274202	    -20.81165774	      2.58489143	      4.39822122	    -12.73270307	     -5.99777760	     17.65792328	    -13.22051996	     18.52454232	      3.66917452	     -2.77525008	      4.79801108	    -11.10110666
      3.17000000	     -1.09781172	     -5.61192942	     13.55946851	     -0.19699474	      0.94177529	     -0.31865486	     30.54330113	      0.66051437	     -9.03792490	    -21.73099106	      1.77463667	      3.96681234	    -13.02701428	     -6.36887184	     17.99387449	    -13.67890557	     18.27112624	      4.41427606	     -2.60895708	      4.94474585	    -11.18498922
      3.18000000	     -1.08258420	     -5.76775728	     13.81620697	     -0.18645688	      0.94130592	     -0.31802922	     30.60218705	      0.91089370	     -9.07953529	    -22.69364394	      0.91804061	      3.50849621	    -13.28295833	     -6.73450118	     18.28937177	    -14.21199215	     17.91680117	      5.28690543	     -2.42886502	      5.10445517	    -11.21208446
      3.19000000	     -1.05295589	     -5.92978726	     14.04309713	     -0.17575242	      0.94099110	     -0.31737378	     30.65190690	      1.17075368	     -9.11082195	    -23.70465320	      0.15897838	      3.13168173	    -13.50496813	     -7.08745738	     18.57085157	    -14.83622756	     17.45946848	      6.19086040	     -2.25431637	      5.27613610	    -11.21339252
      3.20000000	     -1.00823781	     -6.09332509	     14.23363990	     -0.16488110	      0.94083671	     -0.31669665	     30.68586707	      1.43645731	     -9.14163541	    -24.75187959	     -0.41892680	      2.83595093	    -13.69278194	     -7.41974656	     18.82187446	    -15.55385343	     16.89528978	      7.14199629	     -2.08632621	      5.45514546	    -11.21019967
      3.21000000	     -0.94690703	     -6.24946855	     14.39422011	     -0.15387058	      0.94085306	     -0.31603421	     30.68523577	      1.69704714	     -9.18579306	    -25.80998634	     -0.76302919	      2.62114985	    -13.83629494	     -7.71650508	     19.05479760	    -16.38163039	     16.20800156	      8.10682995	     -1.92864287	      5.63791521	    -11.19510261
      3.22000000	     -0.87020421	     -6.38854009	     14.52444815	     -0.14276347	      0.94104229	     -0.31536665	     30.63648046	      1.94891663	     -9.24712686	    -26.85244935	     -0.85816818	      2.45553810	    -13.91716024	     -7.96323367	     19.27263244	    -17.34833596	     15.39667862	      9.11061008	     -1.78951041	      5.80691871	    -11.16748687
      3.23000000	     -0.78173888	     -6.50030508	     14.63152605	     -0.13160211	      0.94140084	     -0.31472588	     30.52240642	      2.18495759	     -9.31347798	    -27.84750630	     -0.72409155	      2.32443409	    -13.91297850	     -8.14380591	     19.46628058	    -18.47682567	     14.45769060	     10.13440942	     -1.66840355	      5.95531724	    -11.13682299
